<mxfile host="app.diagrams.net" modified="2024-02-26T18:31:46.499Z" agent="Mozilla/5.0 (Windows NT 10.0; Win64; x64) AppleWebKit/537.36 (KHTML, like Gecko) Chrome/122.0.0.0 Safari/537.36 Edg/122.0.0.0" etag="gcjlhuMY29oYoec9507Z" version="23.1.7" type="github" pages="2">
  <diagram name="Page-1" id="c4acf3e9-155e-7222-9cf6-157b1a14988f">
    <mxGraphModel dx="3610" dy="1338" grid="1" gridSize="10" guides="1" tooltips="1" connect="1" arrows="1" fold="1" page="1" pageScale="1" pageWidth="850" pageHeight="1100" background="none" math="0" shadow="0">
      <root>
        <mxCell id="0" />
        <mxCell id="1" parent="0" />
        <mxCell id="VwYbgyeqXYnY6n16pQaH-1" value="&amp;lt;&amp;lt;Abstract&amp;gt;&amp;gt;&lt;br&gt;MusicalInstrument" style="html=1;whiteSpace=wrap;" parent="1" vertex="1">
          <mxGeometry x="-79" y="100" width="160" height="50" as="geometry" />
        </mxCell>
        <mxCell id="VwYbgyeqXYnY6n16pQaH-15" value="Extends" style="endArrow=block;endSize=16;endFill=0;html=1;rounded=0;" parent="1" edge="1">
          <mxGeometry x="0.375" width="160" relative="1" as="geometry">
            <mxPoint y="300" as="sourcePoint" />
            <mxPoint y="150" as="targetPoint" />
            <mxPoint as="offset" />
          </mxGeometry>
        </mxCell>
        <mxCell id="VwYbgyeqXYnY6n16pQaH-19" value="Extends" style="endArrow=block;endSize=16;endFill=0;html=1;rounded=0;" parent="1" edge="1">
          <mxGeometry width="160" relative="1" as="geometry">
            <mxPoint x="-0.5" y="430" as="sourcePoint" />
            <mxPoint x="-0.5" y="350" as="targetPoint" />
          </mxGeometry>
        </mxCell>
        <mxCell id="VwYbgyeqXYnY6n16pQaH-26" value="" style="endArrow=none;html=1;rounded=0;" parent="1" edge="1">
          <mxGeometry width="50" height="50" relative="1" as="geometry">
            <mxPoint x="-330.67" y="300" as="sourcePoint" />
            <mxPoint x="-330.67" y="240" as="targetPoint" />
            <Array as="points" />
          </mxGeometry>
        </mxCell>
        <mxCell id="VwYbgyeqXYnY6n16pQaH-28" value="" style="endArrow=none;html=1;rounded=0;" parent="1" edge="1">
          <mxGeometry width="50" height="50" relative="1" as="geometry">
            <mxPoint x="329.33000000000004" y="300" as="sourcePoint" />
            <mxPoint x="329.33000000000004" y="240" as="targetPoint" />
            <Array as="points" />
          </mxGeometry>
        </mxCell>
        <mxCell id="VwYbgyeqXYnY6n16pQaH-29" value="&amp;lt;&amp;lt;Abstract&amp;gt;&amp;gt;&lt;br&gt;StringInst" style="html=1;whiteSpace=wrap;" parent="1" vertex="1">
          <mxGeometry x="-60" y="300" width="120" height="50" as="geometry" />
        </mxCell>
        <mxCell id="VwYbgyeqXYnY6n16pQaH-32" value="&amp;lt;&amp;lt;Abstract&amp;gt;&amp;gt;&lt;br&gt;Brass" style="html=1;whiteSpace=wrap;" parent="1" vertex="1">
          <mxGeometry x="600" y="300" width="120" height="50" as="geometry" />
        </mxCell>
        <mxCell id="VwYbgyeqXYnY6n16pQaH-33" value="&amp;lt;&amp;lt;Abstract&amp;gt;&amp;gt;&lt;br&gt;Keyboard" style="html=1;whiteSpace=wrap;" parent="1" vertex="1">
          <mxGeometry x="270" y="300" width="120" height="50" as="geometry" />
        </mxCell>
        <mxCell id="VwYbgyeqXYnY6n16pQaH-35" value="&amp;lt;&amp;lt;Abstract&amp;gt;&amp;gt;&lt;br&gt;WoodWind" style="html=1;whiteSpace=wrap;" parent="1" vertex="1">
          <mxGeometry x="-390" y="300" width="120" height="50" as="geometry" />
        </mxCell>
        <mxCell id="VwYbgyeqXYnY6n16pQaH-37" value="" style="endArrow=none;html=1;rounded=0;" parent="1" edge="1">
          <mxGeometry width="50" height="50" relative="1" as="geometry">
            <mxPoint x="-70" y="430" as="sourcePoint" />
            <mxPoint x="70" y="430" as="targetPoint" />
          </mxGeometry>
        </mxCell>
        <mxCell id="VwYbgyeqXYnY6n16pQaH-38" value="" style="endArrow=none;html=1;rounded=0;" parent="1" edge="1">
          <mxGeometry width="50" height="50" relative="1" as="geometry">
            <mxPoint x="70" y="490" as="sourcePoint" />
            <mxPoint x="70" y="430" as="targetPoint" />
            <Array as="points" />
          </mxGeometry>
        </mxCell>
        <mxCell id="VwYbgyeqXYnY6n16pQaH-39" value="" style="endArrow=none;html=1;rounded=0;" parent="1" edge="1">
          <mxGeometry width="50" height="50" relative="1" as="geometry">
            <mxPoint x="-70" y="490" as="sourcePoint" />
            <mxPoint x="-70" y="430" as="targetPoint" />
            <Array as="points" />
          </mxGeometry>
        </mxCell>
        <mxCell id="VwYbgyeqXYnY6n16pQaH-40" value="Violin" style="html=1;whiteSpace=wrap;" parent="1" vertex="1">
          <mxGeometry x="40" y="490" width="120" height="50" as="geometry" />
        </mxCell>
        <mxCell id="VwYbgyeqXYnY6n16pQaH-41" value="Guitar" style="html=1;whiteSpace=wrap;" parent="1" vertex="1">
          <mxGeometry x="-160" y="490" width="120" height="50" as="geometry" />
        </mxCell>
        <mxCell id="VwYbgyeqXYnY6n16pQaH-46" value="Cello" style="html=1;whiteSpace=wrap;" parent="1" vertex="1">
          <mxGeometry x="-60" y="560" width="120" height="50" as="geometry" />
        </mxCell>
        <mxCell id="VwYbgyeqXYnY6n16pQaH-47" value="" style="endArrow=none;html=1;rounded=0;" parent="1" edge="1">
          <mxGeometry width="50" height="50" relative="1" as="geometry">
            <mxPoint y="560" as="sourcePoint" />
            <mxPoint y="430" as="targetPoint" />
          </mxGeometry>
        </mxCell>
        <mxCell id="VwYbgyeqXYnY6n16pQaH-56" value="Extends" style="endArrow=block;endSize=16;endFill=0;html=1;rounded=0;" parent="1" edge="1">
          <mxGeometry width="160" relative="1" as="geometry">
            <mxPoint x="-330.5" y="430" as="sourcePoint" />
            <mxPoint x="-330.5" y="350" as="targetPoint" />
          </mxGeometry>
        </mxCell>
        <mxCell id="VwYbgyeqXYnY6n16pQaH-57" value="" style="endArrow=none;html=1;rounded=0;" parent="1" edge="1">
          <mxGeometry width="50" height="50" relative="1" as="geometry">
            <mxPoint x="-400" y="430" as="sourcePoint" />
            <mxPoint x="-260" y="430" as="targetPoint" />
          </mxGeometry>
        </mxCell>
        <mxCell id="VwYbgyeqXYnY6n16pQaH-58" value="" style="endArrow=none;html=1;rounded=0;" parent="1" edge="1">
          <mxGeometry width="50" height="50" relative="1" as="geometry">
            <mxPoint x="-260" y="490" as="sourcePoint" />
            <mxPoint x="-260" y="430" as="targetPoint" />
            <Array as="points" />
          </mxGeometry>
        </mxCell>
        <mxCell id="VwYbgyeqXYnY6n16pQaH-59" value="" style="endArrow=none;html=1;rounded=0;" parent="1" edge="1">
          <mxGeometry width="50" height="50" relative="1" as="geometry">
            <mxPoint x="-400" y="490" as="sourcePoint" />
            <mxPoint x="-400" y="430" as="targetPoint" />
            <Array as="points" />
          </mxGeometry>
        </mxCell>
        <mxCell id="VwYbgyeqXYnY6n16pQaH-60" value="Clarinet" style="html=1;whiteSpace=wrap;" parent="1" vertex="1">
          <mxGeometry x="-290" y="490" width="120" height="50" as="geometry" />
        </mxCell>
        <mxCell id="VwYbgyeqXYnY6n16pQaH-61" value="Flute" style="html=1;whiteSpace=wrap;" parent="1" vertex="1">
          <mxGeometry x="-490" y="490" width="120" height="50" as="geometry" />
        </mxCell>
        <mxCell id="VwYbgyeqXYnY6n16pQaH-62" value="Saxophone" style="html=1;whiteSpace=wrap;" parent="1" vertex="1">
          <mxGeometry x="-390" y="560" width="120" height="50" as="geometry" />
        </mxCell>
        <mxCell id="VwYbgyeqXYnY6n16pQaH-63" value="" style="endArrow=none;html=1;rounded=0;" parent="1" edge="1">
          <mxGeometry width="50" height="50" relative="1" as="geometry">
            <mxPoint x="-330" y="560" as="sourcePoint" />
            <mxPoint x="-330" y="430" as="targetPoint" />
          </mxGeometry>
        </mxCell>
        <mxCell id="VwYbgyeqXYnY6n16pQaH-65" value="&amp;lt;&amp;lt;Abstract&amp;gt;&amp;gt;&lt;br&gt;Percussion" style="html=1;whiteSpace=wrap;" parent="1" vertex="1">
          <mxGeometry x="-720" y="300" width="120" height="50" as="geometry" />
        </mxCell>
        <mxCell id="VwYbgyeqXYnY6n16pQaH-66" value="Extends" style="endArrow=block;endSize=16;endFill=0;html=1;rounded=0;" parent="1" edge="1">
          <mxGeometry width="160" relative="1" as="geometry">
            <mxPoint x="-660.5" y="430" as="sourcePoint" />
            <mxPoint x="-660.5" y="350" as="targetPoint" />
          </mxGeometry>
        </mxCell>
        <mxCell id="VwYbgyeqXYnY6n16pQaH-67" value="" style="endArrow=none;html=1;rounded=0;" parent="1" edge="1">
          <mxGeometry width="50" height="50" relative="1" as="geometry">
            <mxPoint x="-730" y="430" as="sourcePoint" />
            <mxPoint x="-590" y="430" as="targetPoint" />
          </mxGeometry>
        </mxCell>
        <mxCell id="VwYbgyeqXYnY6n16pQaH-68" value="" style="endArrow=none;html=1;rounded=0;" parent="1" edge="1">
          <mxGeometry width="50" height="50" relative="1" as="geometry">
            <mxPoint x="-590" y="490" as="sourcePoint" />
            <mxPoint x="-590" y="430" as="targetPoint" />
            <Array as="points" />
          </mxGeometry>
        </mxCell>
        <mxCell id="VwYbgyeqXYnY6n16pQaH-69" value="" style="endArrow=none;html=1;rounded=0;" parent="1" edge="1">
          <mxGeometry width="50" height="50" relative="1" as="geometry">
            <mxPoint x="-730" y="490" as="sourcePoint" />
            <mxPoint x="-730" y="430" as="targetPoint" />
            <Array as="points" />
          </mxGeometry>
        </mxCell>
        <mxCell id="VwYbgyeqXYnY6n16pQaH-70" value="Castanets" style="html=1;whiteSpace=wrap;" parent="1" vertex="1">
          <mxGeometry x="-620" y="490" width="120" height="50" as="geometry" />
        </mxCell>
        <mxCell id="VwYbgyeqXYnY6n16pQaH-71" value="Xylophone" style="html=1;whiteSpace=wrap;" parent="1" vertex="1">
          <mxGeometry x="-820" y="490" width="120" height="50" as="geometry" />
        </mxCell>
        <mxCell id="VwYbgyeqXYnY6n16pQaH-72" value="BassDrum" style="html=1;whiteSpace=wrap;" parent="1" vertex="1">
          <mxGeometry x="-720" y="560" width="120" height="50" as="geometry" />
        </mxCell>
        <mxCell id="VwYbgyeqXYnY6n16pQaH-73" value="" style="endArrow=none;html=1;rounded=0;" parent="1" edge="1">
          <mxGeometry width="50" height="50" relative="1" as="geometry">
            <mxPoint x="-660" y="560" as="sourcePoint" />
            <mxPoint x="-660" y="430" as="targetPoint" />
          </mxGeometry>
        </mxCell>
        <mxCell id="VwYbgyeqXYnY6n16pQaH-75" value="" style="endArrow=none;html=1;rounded=0;" parent="1" edge="1">
          <mxGeometry width="50" height="50" relative="1" as="geometry">
            <mxPoint x="-660.6700000000001" y="300" as="sourcePoint" />
            <mxPoint x="-660.6700000000001" y="240" as="targetPoint" />
            <Array as="points" />
          </mxGeometry>
        </mxCell>
        <mxCell id="VwYbgyeqXYnY6n16pQaH-76" value="Extends" style="endArrow=block;endSize=16;endFill=0;html=1;rounded=0;" parent="1" edge="1">
          <mxGeometry width="160" relative="1" as="geometry">
            <mxPoint x="329.5" y="430" as="sourcePoint" />
            <mxPoint x="329.5" y="350" as="targetPoint" />
          </mxGeometry>
        </mxCell>
        <mxCell id="VwYbgyeqXYnY6n16pQaH-77" value="" style="endArrow=none;html=1;rounded=0;" parent="1" edge="1">
          <mxGeometry width="50" height="50" relative="1" as="geometry">
            <mxPoint x="260" y="430" as="sourcePoint" />
            <mxPoint x="400" y="430" as="targetPoint" />
          </mxGeometry>
        </mxCell>
        <mxCell id="VwYbgyeqXYnY6n16pQaH-78" value="" style="endArrow=none;html=1;rounded=0;" parent="1" edge="1">
          <mxGeometry width="50" height="50" relative="1" as="geometry">
            <mxPoint x="400" y="490" as="sourcePoint" />
            <mxPoint x="400" y="430" as="targetPoint" />
            <Array as="points" />
          </mxGeometry>
        </mxCell>
        <mxCell id="VwYbgyeqXYnY6n16pQaH-79" value="" style="endArrow=none;html=1;rounded=0;" parent="1" edge="1">
          <mxGeometry width="50" height="50" relative="1" as="geometry">
            <mxPoint x="260" y="490" as="sourcePoint" />
            <mxPoint x="260" y="430" as="targetPoint" />
            <Array as="points" />
          </mxGeometry>
        </mxCell>
        <mxCell id="VwYbgyeqXYnY6n16pQaH-80" value="Organ" style="html=1;whiteSpace=wrap;" parent="1" vertex="1">
          <mxGeometry x="370" y="490" width="120" height="50" as="geometry" />
        </mxCell>
        <mxCell id="VwYbgyeqXYnY6n16pQaH-81" value="Piano" style="html=1;whiteSpace=wrap;" parent="1" vertex="1">
          <mxGeometry x="170" y="490" width="120" height="50" as="geometry" />
        </mxCell>
        <mxCell id="VwYbgyeqXYnY6n16pQaH-82" value="Synthesiser" style="html=1;whiteSpace=wrap;" parent="1" vertex="1">
          <mxGeometry x="270" y="560" width="120" height="50" as="geometry" />
        </mxCell>
        <mxCell id="VwYbgyeqXYnY6n16pQaH-83" value="" style="endArrow=none;html=1;rounded=0;" parent="1" edge="1">
          <mxGeometry width="50" height="50" relative="1" as="geometry">
            <mxPoint x="330" y="560" as="sourcePoint" />
            <mxPoint x="330" y="430" as="targetPoint" />
          </mxGeometry>
        </mxCell>
        <mxCell id="VwYbgyeqXYnY6n16pQaH-84" value="Extends" style="endArrow=block;endSize=16;endFill=0;html=1;rounded=0;" parent="1" edge="1">
          <mxGeometry width="160" relative="1" as="geometry">
            <mxPoint x="659.5" y="430" as="sourcePoint" />
            <mxPoint x="659.5" y="350" as="targetPoint" />
          </mxGeometry>
        </mxCell>
        <mxCell id="VwYbgyeqXYnY6n16pQaH-85" value="" style="endArrow=none;html=1;rounded=0;" parent="1" edge="1">
          <mxGeometry width="50" height="50" relative="1" as="geometry">
            <mxPoint x="590" y="430" as="sourcePoint" />
            <mxPoint x="730" y="430" as="targetPoint" />
          </mxGeometry>
        </mxCell>
        <mxCell id="VwYbgyeqXYnY6n16pQaH-86" value="" style="endArrow=none;html=1;rounded=0;" parent="1" edge="1">
          <mxGeometry width="50" height="50" relative="1" as="geometry">
            <mxPoint x="730" y="490" as="sourcePoint" />
            <mxPoint x="730" y="430" as="targetPoint" />
            <Array as="points" />
          </mxGeometry>
        </mxCell>
        <mxCell id="VwYbgyeqXYnY6n16pQaH-87" value="" style="endArrow=none;html=1;rounded=0;" parent="1" edge="1">
          <mxGeometry width="50" height="50" relative="1" as="geometry">
            <mxPoint x="590" y="490" as="sourcePoint" />
            <mxPoint x="590" y="430" as="targetPoint" />
            <Array as="points" />
          </mxGeometry>
        </mxCell>
        <mxCell id="VwYbgyeqXYnY6n16pQaH-88" value="Cornet" style="html=1;whiteSpace=wrap;" parent="1" vertex="1">
          <mxGeometry x="700" y="490" width="120" height="50" as="geometry" />
        </mxCell>
        <mxCell id="VwYbgyeqXYnY6n16pQaH-89" value="Trumpet" style="html=1;whiteSpace=wrap;" parent="1" vertex="1">
          <mxGeometry x="500" y="490" width="120" height="50" as="geometry" />
        </mxCell>
        <mxCell id="VwYbgyeqXYnY6n16pQaH-90" value="Euphonium" style="html=1;whiteSpace=wrap;" parent="1" vertex="1">
          <mxGeometry x="600" y="560" width="120" height="50" as="geometry" />
        </mxCell>
        <mxCell id="VwYbgyeqXYnY6n16pQaH-91" value="" style="endArrow=none;html=1;rounded=0;" parent="1" edge="1">
          <mxGeometry width="50" height="50" relative="1" as="geometry">
            <mxPoint x="660" y="560" as="sourcePoint" />
            <mxPoint x="660" y="430" as="targetPoint" />
          </mxGeometry>
        </mxCell>
        <mxCell id="VwYbgyeqXYnY6n16pQaH-92" value="" style="endArrow=none;html=1;rounded=0;" parent="1" edge="1">
          <mxGeometry width="50" height="50" relative="1" as="geometry">
            <mxPoint x="659.3299999999999" y="300" as="sourcePoint" />
            <mxPoint x="659.3299999999999" y="240" as="targetPoint" />
            <Array as="points" />
          </mxGeometry>
        </mxCell>
        <mxCell id="VwYbgyeqXYnY6n16pQaH-101" value="" style="endArrow=block;dashed=1;endFill=0;endSize=12;html=1;rounded=0;entryX=0;entryY=0.5;entryDx=0;entryDy=0;" parent="1" edge="1">
          <mxGeometry width="160" relative="1" as="geometry">
            <mxPoint x="80" y="120" as="sourcePoint" />
            <mxPoint x="260" y="90" as="targetPoint" />
          </mxGeometry>
        </mxCell>
        <mxCell id="VwYbgyeqXYnY6n16pQaH-102" value="&amp;lt;&amp;lt;interface&amp;gt;&amp;gt;&lt;br&gt;Play" style="html=1;whiteSpace=wrap;" parent="1" vertex="1">
          <mxGeometry x="290" y="60" width="110" height="50" as="geometry" />
        </mxCell>
        <mxCell id="VwYbgyeqXYnY6n16pQaH-103" value="&amp;lt;&amp;lt;interface&amp;gt;&amp;gt;&lt;br&gt;Tune" style="html=1;whiteSpace=wrap;" parent="1" vertex="1">
          <mxGeometry x="265" y="140" width="110" height="50" as="geometry" />
        </mxCell>
        <mxCell id="VwYbgyeqXYnY6n16pQaH-105" value="" style="endArrow=block;dashed=1;endFill=0;endSize=12;html=1;rounded=0;entryX=0;entryY=0.5;entryDx=0;entryDy=0;" parent="1" target="VwYbgyeqXYnY6n16pQaH-103" edge="1">
          <mxGeometry width="160" relative="1" as="geometry">
            <mxPoint x="80" y="135" as="sourcePoint" />
            <mxPoint x="265" y="110" as="targetPoint" />
          </mxGeometry>
        </mxCell>
        <mxCell id="67XdJ2itMmza3kjSckhk-11" value="" style="endArrow=none;html=1;rounded=0;" parent="1" edge="1">
          <mxGeometry width="50" height="50" relative="1" as="geometry">
            <mxPoint x="-355" y="240" as="sourcePoint" />
            <mxPoint x="660" y="240" as="targetPoint" />
          </mxGeometry>
        </mxCell>
        <mxCell id="67XdJ2itMmza3kjSckhk-12" value="" style="endArrow=none;html=1;rounded=0;" parent="1" edge="1">
          <mxGeometry width="50" height="50" relative="1" as="geometry">
            <mxPoint x="-660" y="240" as="sourcePoint" />
            <mxPoint x="-355" y="240" as="targetPoint" />
          </mxGeometry>
        </mxCell>
      </root>
    </mxGraphModel>
  </diagram>
  <diagram id="3sXM__8lgrnaIp6EIEHx" name="Page-2">
    <mxGraphModel dx="3955" dy="1505" grid="1" gridSize="10" guides="1" tooltips="1" connect="1" arrows="1" fold="1" page="1" pageScale="1" pageWidth="850" pageHeight="1100" math="0" shadow="0">
      <root>
        <mxCell id="0" />
        <mxCell id="1" parent="0" />
        <mxCell id="wWvbnRaUt92-p2GNaJ0o-5" value="MusicalInstrument&lt;br&gt;&amp;lt;&amp;lt;Abstract&amp;gt;&amp;gt;" style="swimlane;fontStyle=1;align=center;verticalAlign=top;childLayout=stackLayout;horizontal=1;startSize=40;horizontalStack=0;resizeParent=1;resizeParentMax=0;resizeLast=0;collapsible=1;marginBottom=0;whiteSpace=wrap;html=1;" parent="1" vertex="1">
          <mxGeometry x="115" y="60" width="510" height="350" as="geometry" />
        </mxCell>
        <mxCell id="wWvbnRaUt92-p2GNaJ0o-6" value="# volume: double&lt;br&gt;# timber: String&lt;br&gt;# originCountry: String&lt;br&gt;# notes: String&lt;br&gt;# electrical: boolean&lt;br&gt;# material: String" style="text;strokeColor=none;fillColor=none;align=left;verticalAlign=top;spacingLeft=4;spacingRight=4;overflow=hidden;rotatable=0;points=[[0,0.5],[1,0.5]];portConstraint=eastwest;whiteSpace=wrap;html=1;" parent="wWvbnRaUt92-p2GNaJ0o-5" vertex="1">
          <mxGeometry y="40" width="510" height="100" as="geometry" />
        </mxCell>
        <mxCell id="wWvbnRaUt92-p2GNaJ0o-7" value="" style="line;strokeWidth=1;fillColor=none;align=left;verticalAlign=middle;spacingTop=-1;spacingLeft=3;spacingRight=3;rotatable=0;labelPosition=right;points=[];portConstraint=eastwest;strokeColor=inherit;" parent="wWvbnRaUt92-p2GNaJ0o-5" vertex="1">
          <mxGeometry y="140" width="510" height="8" as="geometry" />
        </mxCell>
        <mxCell id="wWvbnRaUt92-p2GNaJ0o-8" value="+ MusicalInstruments()&lt;br&gt;+ MusicalInstruments( volume: double, timber: String, originCountry: String, notes: String, electrical: boolean)&lt;br&gt;+ MusicalInstruments(musicalInstruments m)&lt;br&gt;+ getVolume(): double&lt;br&gt;+ getTimber(): String&lt;br&gt;+ getOriginCountry(): String&lt;br&gt;+ getNotes(): String&lt;br&gt;+ getElectrical(): boolean&lt;br&gt;+ getShape(): String&lt;br style=&quot;border-color: var(--border-color);&quot;&gt;+ toString(): String&lt;br&gt;+ equals(Object o): boolean&lt;br&gt;+ getMaterial() : String&lt;div&gt;&lt;br&gt;&lt;/div&gt;" style="text;strokeColor=none;fillColor=none;align=left;verticalAlign=top;spacingLeft=4;spacingRight=4;overflow=hidden;rotatable=0;points=[[0,0.5],[1,0.5]];portConstraint=eastwest;whiteSpace=wrap;html=1;" parent="wWvbnRaUt92-p2GNaJ0o-5" vertex="1">
          <mxGeometry y="148" width="510" height="202" as="geometry" />
        </mxCell>
        <mxCell id="wWvbnRaUt92-p2GNaJ0o-30" value="Percussion &amp;lt;&amp;lt;extends&amp;gt;&amp;gt; MusicalInstruments&lt;br&gt;&amp;lt;&amp;lt;Abstract&amp;gt;&amp;gt;" style="swimlane;fontStyle=1;align=center;verticalAlign=top;childLayout=stackLayout;horizontal=1;startSize=40;horizontalStack=0;resizeParent=1;resizeParentMax=0;resizeLast=0;collapsible=1;marginBottom=0;whiteSpace=wrap;html=1;" parent="1" vertex="1">
          <mxGeometry x="-685" y="590" width="340" height="200" as="geometry" />
        </mxCell>
        <mxCell id="wWvbnRaUt92-p2GNaJ0o-31" value="&lt;br&gt;# durationOfNote: String" style="text;strokeColor=none;fillColor=none;align=left;verticalAlign=top;spacingLeft=4;spacingRight=4;overflow=hidden;rotatable=0;points=[[0,0.5],[1,0.5]];portConstraint=eastwest;whiteSpace=wrap;html=1;" parent="wWvbnRaUt92-p2GNaJ0o-30" vertex="1">
          <mxGeometry y="40" width="340" height="50" as="geometry" />
        </mxCell>
        <mxCell id="wWvbnRaUt92-p2GNaJ0o-33" value="" style="line;strokeWidth=1;fillColor=none;align=left;verticalAlign=middle;spacingTop=-1;spacingLeft=3;spacingRight=3;rotatable=0;labelPosition=right;points=[];portConstraint=eastwest;strokeColor=inherit;" parent="wWvbnRaUt92-p2GNaJ0o-30" vertex="1">
          <mxGeometry y="90" width="340" height="8" as="geometry" />
        </mxCell>
        <mxCell id="wWvbnRaUt92-p2GNaJ0o-34" value="+ Percussion()&lt;br&gt;+ Percussion(String)&lt;br&gt;+ Percussion(Percussion p)&lt;br&gt;+ getDurationOfNote(): String&lt;br&gt;+ toString(): String&lt;br&gt;+ equals(Object o): boolean" style="text;strokeColor=none;fillColor=none;align=left;verticalAlign=top;spacingLeft=4;spacingRight=4;overflow=hidden;rotatable=0;points=[[0,0.5],[1,0.5]];portConstraint=eastwest;whiteSpace=wrap;html=1;" parent="wWvbnRaUt92-p2GNaJ0o-30" vertex="1">
          <mxGeometry y="98" width="340" height="102" as="geometry" />
        </mxCell>
        <mxCell id="wWvbnRaUt92-p2GNaJ0o-43" value="WoodWind &amp;lt;&amp;lt;extends&amp;gt;&amp;gt; MusicalInstruments&lt;br&gt;&amp;lt;&amp;lt;Abstract&amp;gt;&amp;gt;" style="swimlane;fontStyle=1;align=center;verticalAlign=top;childLayout=stackLayout;horizontal=1;startSize=40;horizontalStack=0;resizeParent=1;resizeParentMax=0;resizeLast=0;collapsible=1;marginBottom=0;whiteSpace=wrap;html=1;" parent="1" vertex="1">
          <mxGeometry x="-225" y="604" width="320" height="190" as="geometry" />
        </mxCell>
        <mxCell id="wWvbnRaUt92-p2GNaJ0o-44" value="# length: double" style="text;strokeColor=none;fillColor=none;align=left;verticalAlign=top;spacingLeft=4;spacingRight=4;overflow=hidden;rotatable=0;points=[[0,0.5],[1,0.5]];portConstraint=eastwest;whiteSpace=wrap;html=1;" parent="wWvbnRaUt92-p2GNaJ0o-43" vertex="1">
          <mxGeometry y="40" width="320" height="40" as="geometry" />
        </mxCell>
        <mxCell id="wWvbnRaUt92-p2GNaJ0o-45" value="" style="line;strokeWidth=1;fillColor=none;align=left;verticalAlign=middle;spacingTop=-1;spacingLeft=3;spacingRight=3;rotatable=0;labelPosition=right;points=[];portConstraint=eastwest;strokeColor=inherit;" parent="wWvbnRaUt92-p2GNaJ0o-43" vertex="1">
          <mxGeometry y="80" width="320" height="8" as="geometry" />
        </mxCell>
        <mxCell id="wWvbnRaUt92-p2GNaJ0o-46" value="+ WoodWind()&lt;br&gt;+ WoodWind(length: double)&lt;br&gt;+ WoodWind(woodWind w)&lt;br&gt;+ getLength(): double&lt;br&gt;+ toString(): String&lt;br&gt;+ equals(Object o): boolean" style="text;strokeColor=none;fillColor=none;align=left;verticalAlign=top;spacingLeft=4;spacingRight=4;overflow=hidden;rotatable=0;points=[[0,0.5],[1,0.5]];portConstraint=eastwest;whiteSpace=wrap;html=1;" parent="wWvbnRaUt92-p2GNaJ0o-43" vertex="1">
          <mxGeometry y="88" width="320" height="102" as="geometry" />
        </mxCell>
        <mxCell id="Y4-Tn5Xb6IdavVXJyYZS-15" value="&amp;lt;&amp;lt;Interface&amp;gt;&amp;gt;&lt;br&gt;Tune" style="swimlane;fontStyle=0;childLayout=stackLayout;horizontal=1;startSize=26;fillColor=none;horizontalStack=0;resizeParent=1;resizeParentMax=0;resizeLast=0;collapsible=1;marginBottom=0;whiteSpace=wrap;html=1;" parent="1" vertex="1">
          <mxGeometry x="-240" y="420" width="190" height="52" as="geometry" />
        </mxCell>
        <mxCell id="Y4-Tn5Xb6IdavVXJyYZS-17" value="+ tune(): String&amp;nbsp;" style="text;strokeColor=none;fillColor=none;align=left;verticalAlign=top;spacingLeft=4;spacingRight=4;overflow=hidden;rotatable=0;points=[[0,0.5],[1,0.5]];portConstraint=eastwest;whiteSpace=wrap;html=1;" parent="Y4-Tn5Xb6IdavVXJyYZS-15" vertex="1">
          <mxGeometry y="26" width="190" height="26" as="geometry" />
        </mxCell>
        <mxCell id="Y4-Tn5Xb6IdavVXJyYZS-20" value="" style="endArrow=block;dashed=1;endFill=0;endSize=12;html=1;rounded=0;entryX=1.025;entryY=0.165;entryDx=0;entryDy=0;entryPerimeter=0;exitX=-0.007;exitY=0.738;exitDx=0;exitDy=0;exitPerimeter=0;" parent="1" source="wWvbnRaUt92-p2GNaJ0o-8" target="Y4-Tn5Xb6IdavVXJyYZS-15" edge="1">
          <mxGeometry width="160" relative="1" as="geometry">
            <mxPoint x="114" y="321" as="sourcePoint" />
            <mxPoint x="-45" y="400" as="targetPoint" />
          </mxGeometry>
        </mxCell>
        <mxCell id="Y4-Tn5Xb6IdavVXJyYZS-22" value="Extends" style="endArrow=block;endSize=16;endFill=0;html=1;rounded=0;entryX=0.376;entryY=1.024;entryDx=0;entryDy=0;entryPerimeter=0;" parent="1" target="wWvbnRaUt92-p2GNaJ0o-8" edge="1">
          <mxGeometry width="160" relative="1" as="geometry">
            <mxPoint x="307" y="580" as="sourcePoint" />
            <mxPoint x="147.29000000000036" y="404.04599999999994" as="targetPoint" />
          </mxGeometry>
        </mxCell>
        <mxCell id="ruNTNjnIQSw9dJLoCCky-1" value="" style="endArrow=none;html=1;rounded=0;" parent="1" edge="1">
          <mxGeometry width="50" height="50" relative="1" as="geometry">
            <mxPoint x="-515" y="580" as="sourcePoint" />
            <mxPoint x="1335" y="580" as="targetPoint" />
          </mxGeometry>
        </mxCell>
        <mxCell id="ruNTNjnIQSw9dJLoCCky-2" value="" style="endArrow=none;html=1;rounded=0;exitX=0.5;exitY=0;exitDx=0;exitDy=0;" parent="1" source="wWvbnRaUt92-p2GNaJ0o-43" edge="1">
          <mxGeometry width="50" height="50" relative="1" as="geometry">
            <mxPoint x="-5" y="620" as="sourcePoint" />
            <mxPoint x="-65" y="580" as="targetPoint" />
          </mxGeometry>
        </mxCell>
        <mxCell id="ruNTNjnIQSw9dJLoCCky-4" value="" style="endArrow=none;html=1;rounded=0;exitX=0.5;exitY=0;exitDx=0;exitDy=0;" parent="1" source="wWvbnRaUt92-p2GNaJ0o-30" edge="1">
          <mxGeometry width="50" height="50" relative="1" as="geometry">
            <mxPoint x="-435" y="610" as="sourcePoint" />
            <mxPoint x="-515" y="580" as="targetPoint" />
          </mxGeometry>
        </mxCell>
        <mxCell id="dEGA_bCqO4jVMYCDkHFc-1" value="StringInst &amp;lt;&amp;lt;extends&amp;gt;&amp;gt; MusicalInstruments&lt;br&gt;&amp;lt;&amp;lt;Abstract&amp;gt;&amp;gt;" style="swimlane;fontStyle=1;align=center;verticalAlign=top;childLayout=stackLayout;horizontal=1;startSize=40;horizontalStack=0;resizeParent=1;resizeParentMax=0;resizeLast=0;collapsible=1;marginBottom=0;whiteSpace=wrap;html=1;" parent="1" vertex="1">
          <mxGeometry x="245" y="610" width="320" height="190" as="geometry" />
        </mxCell>
        <mxCell id="dEGA_bCqO4jVMYCDkHFc-2" value="# nbOfStrings: int&lt;div&gt;&lt;br/&gt;&lt;/div&gt;" style="text;strokeColor=none;fillColor=none;align=left;verticalAlign=top;spacingLeft=4;spacingRight=4;overflow=hidden;rotatable=0;points=[[0,0.5],[1,0.5]];portConstraint=eastwest;whiteSpace=wrap;html=1;" parent="dEGA_bCqO4jVMYCDkHFc-1" vertex="1">
          <mxGeometry y="40" width="320" height="30" as="geometry" />
        </mxCell>
        <mxCell id="dEGA_bCqO4jVMYCDkHFc-3" value="" style="line;strokeWidth=1;fillColor=none;align=left;verticalAlign=middle;spacingTop=-1;spacingLeft=3;spacingRight=3;rotatable=0;labelPosition=right;points=[];portConstraint=eastwest;strokeColor=inherit;" parent="dEGA_bCqO4jVMYCDkHFc-1" vertex="1">
          <mxGeometry y="70" width="320" height="8" as="geometry" />
        </mxCell>
        <mxCell id="dEGA_bCqO4jVMYCDkHFc-4" value="+ StringInst()&lt;br&gt;+ StringInst(nbOfStrings: int)&lt;br&gt;+ StringInst(String s)&lt;br&gt;+ getNbOfStrings(): int&lt;br&gt;+ toString(): String&lt;br&gt;+ equals(Object o): boolean" style="text;strokeColor=none;fillColor=none;align=left;verticalAlign=top;spacingLeft=4;spacingRight=4;overflow=hidden;rotatable=0;points=[[0,0.5],[1,0.5]];portConstraint=eastwest;whiteSpace=wrap;html=1;" parent="dEGA_bCqO4jVMYCDkHFc-1" vertex="1">
          <mxGeometry y="78" width="320" height="112" as="geometry" />
        </mxCell>
        <mxCell id="dEGA_bCqO4jVMYCDkHFc-5" value="" style="endArrow=none;html=1;rounded=0;exitX=0.5;exitY=0;exitDx=0;exitDy=0;" parent="1" source="dEGA_bCqO4jVMYCDkHFc-1" edge="1">
          <mxGeometry width="50" height="50" relative="1" as="geometry">
            <mxPoint x="115" y="630" as="sourcePoint" />
            <mxPoint x="405" y="580" as="targetPoint" />
          </mxGeometry>
        </mxCell>
        <mxCell id="qwCtivi4xOOy-BtwJOuV-1" value="Keyboard &amp;lt;&amp;lt;extends&amp;gt;&amp;gt; MusicalInstruments&lt;br&gt;&amp;lt;&amp;lt;Abstract&amp;gt;&amp;gt;" style="swimlane;fontStyle=1;align=center;verticalAlign=top;childLayout=stackLayout;horizontal=1;startSize=40;horizontalStack=0;resizeParent=1;resizeParentMax=0;resizeLast=0;collapsible=1;marginBottom=0;whiteSpace=wrap;html=1;" parent="1" vertex="1">
          <mxGeometry x="665" y="620" width="400" height="250" as="geometry" />
        </mxCell>
        <mxCell id="qwCtivi4xOOy-BtwJOuV-2" value="# IsTouchSensitive: boolean&lt;br&gt;# hasBench: boolean&lt;br&gt;# hasKeyCover: boolean" style="text;strokeColor=none;fillColor=none;align=left;verticalAlign=top;spacingLeft=4;spacingRight=4;overflow=hidden;rotatable=0;points=[[0,0.5],[1,0.5]];portConstraint=eastwest;whiteSpace=wrap;html=1;" parent="qwCtivi4xOOy-BtwJOuV-1" vertex="1">
          <mxGeometry y="40" width="400" height="50" as="geometry" />
        </mxCell>
        <mxCell id="qwCtivi4xOOy-BtwJOuV-3" value="" style="line;strokeWidth=1;fillColor=none;align=left;verticalAlign=middle;spacingTop=-1;spacingLeft=3;spacingRight=3;rotatable=0;labelPosition=right;points=[];portConstraint=eastwest;strokeColor=inherit;" parent="qwCtivi4xOOy-BtwJOuV-1" vertex="1">
          <mxGeometry y="90" width="400" height="10" as="geometry" />
        </mxCell>
        <mxCell id="qwCtivi4xOOy-BtwJOuV-4" value="+ Keyboard()&lt;br&gt;+ Keyboard(IsTouchSensitive: boolean, hasBench: boolean, hasKeyCover: boolean)&lt;br&gt;+ Keyboard(Keyboard k)&lt;br&gt;+ IsTouchSensitive(): boolean&lt;br&gt;+ hasBench(): boolean&lt;br&gt;+ hasKeyCover: boolean&lt;br style=&quot;border-color: var(--border-color);&quot;&gt;+ toString(): String&lt;br&gt;+ equals(Object o): boolean" style="text;strokeColor=none;fillColor=none;align=left;verticalAlign=top;spacingLeft=4;spacingRight=4;overflow=hidden;rotatable=0;points=[[0,0.5],[1,0.5]];portConstraint=eastwest;whiteSpace=wrap;html=1;" parent="qwCtivi4xOOy-BtwJOuV-1" vertex="1">
          <mxGeometry y="100" width="400" height="150" as="geometry" />
        </mxCell>
        <mxCell id="qwCtivi4xOOy-BtwJOuV-5" value="" style="endArrow=none;html=1;rounded=0;exitX=0.5;exitY=0;exitDx=0;exitDy=0;" parent="1" source="qwCtivi4xOOy-BtwJOuV-1" edge="1">
          <mxGeometry width="50" height="50" relative="1" as="geometry">
            <mxPoint x="415" y="640" as="sourcePoint" />
            <mxPoint x="865" y="580" as="targetPoint" />
          </mxGeometry>
        </mxCell>
        <mxCell id="_I7KG6h1P40girRE5gyE-2" value="Brass &amp;lt;&amp;lt;extends&amp;gt;&amp;gt; MusicalInstruments&lt;br&gt;&amp;lt;&amp;lt;Abstract&amp;gt;&amp;gt;" style="swimlane;fontStyle=1;align=center;verticalAlign=top;childLayout=stackLayout;horizontal=1;startSize=40;horizontalStack=0;resizeParent=1;resizeParentMax=0;resizeLast=0;collapsible=1;marginBottom=0;whiteSpace=wrap;html=1;" parent="1" vertex="1">
          <mxGeometry x="1175" y="620" width="320" height="242" as="geometry" />
        </mxCell>
        <mxCell id="_I7KG6h1P40girRE5gyE-3" value="# boreSize: double&lt;br&gt;# bellSize: double&lt;br&gt;# valveType: String" style="text;strokeColor=none;fillColor=none;align=left;verticalAlign=top;spacingLeft=4;spacingRight=4;overflow=hidden;rotatable=0;points=[[0,0.5],[1,0.5]];portConstraint=eastwest;whiteSpace=wrap;html=1;" parent="_I7KG6h1P40girRE5gyE-2" vertex="1">
          <mxGeometry y="40" width="320" height="54" as="geometry" />
        </mxCell>
        <mxCell id="_I7KG6h1P40girRE5gyE-4" value="" style="line;strokeWidth=1;fillColor=none;align=left;verticalAlign=middle;spacingTop=-1;spacingLeft=3;spacingRight=3;rotatable=0;labelPosition=right;points=[];portConstraint=eastwest;strokeColor=inherit;" parent="_I7KG6h1P40girRE5gyE-2" vertex="1">
          <mxGeometry y="94" width="320" height="8" as="geometry" />
        </mxCell>
        <mxCell id="_I7KG6h1P40girRE5gyE-5" value="+ Brass()&lt;br&gt;+ Brass(boreSize: double, bellSize: double, valveType: string)&lt;br&gt;+ Brass(Brass b)&lt;br&gt;+ getBoreSize(): double&lt;br&gt;+ getBellSize(): double&lt;br&gt;+ getValveType(): String&lt;br&gt;+ toString(): String&lt;br&gt;+ equals(Object o): boolean" style="text;strokeColor=none;fillColor=none;align=left;verticalAlign=top;spacingLeft=4;spacingRight=4;overflow=hidden;rotatable=0;points=[[0,0.5],[1,0.5]];portConstraint=eastwest;whiteSpace=wrap;html=1;" parent="_I7KG6h1P40girRE5gyE-2" vertex="1">
          <mxGeometry y="102" width="320" height="140" as="geometry" />
        </mxCell>
        <mxCell id="_I7KG6h1P40girRE5gyE-6" value="" style="endArrow=none;html=1;rounded=0;exitX=0.5;exitY=0;exitDx=0;exitDy=0;" parent="1" source="_I7KG6h1P40girRE5gyE-2" edge="1">
          <mxGeometry width="50" height="50" relative="1" as="geometry">
            <mxPoint x="815" y="620" as="sourcePoint" />
            <mxPoint x="1335" y="580" as="targetPoint" />
          </mxGeometry>
        </mxCell>
        <mxCell id="bglpKrohoVvRzeqZhUQ1-1" value="Xylophone &amp;lt;&amp;lt;extends&amp;gt;&amp;gt; Percussion" style="swimlane;fontStyle=1;align=center;verticalAlign=top;childLayout=stackLayout;horizontal=1;startSize=40;horizontalStack=0;resizeParent=1;resizeParentMax=0;resizeLast=0;collapsible=1;marginBottom=0;whiteSpace=wrap;html=1;" parent="1" vertex="1">
          <mxGeometry x="-745" y="907.5" width="180" height="200" as="geometry" />
        </mxCell>
        <mxCell id="bglpKrohoVvRzeqZhUQ1-2" value="#nbOfBars: String&lt;br&gt;#malletsType: String" style="text;strokeColor=none;fillColor=none;align=left;verticalAlign=top;spacingLeft=4;spacingRight=4;overflow=hidden;rotatable=0;points=[[0,0.5],[1,0.5]];portConstraint=eastwest;whiteSpace=wrap;html=1;" parent="bglpKrohoVvRzeqZhUQ1-1" vertex="1">
          <mxGeometry y="40" width="180" height="40" as="geometry" />
        </mxCell>
        <mxCell id="bglpKrohoVvRzeqZhUQ1-3" value="" style="line;strokeWidth=1;fillColor=none;align=left;verticalAlign=middle;spacingTop=-1;spacingLeft=3;spacingRight=3;rotatable=0;labelPosition=right;points=[];portConstraint=eastwest;strokeColor=inherit;" parent="bglpKrohoVvRzeqZhUQ1-1" vertex="1">
          <mxGeometry y="80" width="180" height="8" as="geometry" />
        </mxCell>
        <mxCell id="bglpKrohoVvRzeqZhUQ1-4" value="+ Xylophone()&lt;br&gt;+ Xylophone(String, String)&lt;br&gt;+ Xylophone(Xylophone X)&lt;br&gt;+ getNbOfBars(): String&lt;br&gt;+ getMalletsType(): String&lt;br&gt;+ toString(): String&lt;br&gt;+ equals(Object o): boolean" style="text;strokeColor=none;fillColor=none;align=left;verticalAlign=top;spacingLeft=4;spacingRight=4;overflow=hidden;rotatable=0;points=[[0,0.5],[1,0.5]];portConstraint=eastwest;whiteSpace=wrap;html=1;" parent="bglpKrohoVvRzeqZhUQ1-1" vertex="1">
          <mxGeometry y="88" width="180" height="112" as="geometry" />
        </mxCell>
        <mxCell id="kGK1JUWnZpYBYA5NfRCf-1" value="Extends" style="endArrow=block;endSize=16;endFill=0;html=1;rounded=0;entryX=0.466;entryY=1.065;entryDx=0;entryDy=0;entryPerimeter=0;" parent="1" target="wWvbnRaUt92-p2GNaJ0o-34" edge="1">
          <mxGeometry width="160" relative="1" as="geometry">
            <mxPoint x="-525" y="860" as="sourcePoint" />
            <mxPoint x="-385" y="860" as="targetPoint" />
          </mxGeometry>
        </mxCell>
        <mxCell id="kGK1JUWnZpYBYA5NfRCf-2" value="" style="endArrow=none;html=1;rounded=0;" parent="1" edge="1">
          <mxGeometry width="50" height="50" relative="1" as="geometry">
            <mxPoint x="-655" y="862.5" as="sourcePoint" />
            <mxPoint x="-405" y="862.5" as="targetPoint" />
          </mxGeometry>
        </mxCell>
        <mxCell id="kGK1JUWnZpYBYA5NfRCf-3" value="" style="endArrow=none;html=1;rounded=0;exitX=0.5;exitY=0;exitDx=0;exitDy=0;" parent="1" source="bglpKrohoVvRzeqZhUQ1-1" edge="1">
          <mxGeometry width="50" height="50" relative="1" as="geometry">
            <mxPoint x="-895" y="912.5" as="sourcePoint" />
            <mxPoint x="-655" y="862.5" as="targetPoint" />
          </mxGeometry>
        </mxCell>
        <mxCell id="kGK1JUWnZpYBYA5NfRCf-4" value="BassDrum &amp;lt;&amp;lt;extends&amp;gt;&amp;gt; Percussion" style="swimlane;fontStyle=1;align=center;verticalAlign=top;childLayout=stackLayout;horizontal=1;startSize=40;horizontalStack=0;resizeParent=1;resizeParentMax=0;resizeLast=0;collapsible=1;marginBottom=0;whiteSpace=wrap;html=1;" parent="1" vertex="1">
          <mxGeometry x="-625" y="1132.5" width="210" height="220" as="geometry" />
        </mxCell>
        <mxCell id="kGK1JUWnZpYBYA5NfRCf-5" value="# diameter: double&lt;br&gt;# nbOfLugs: int&lt;br&gt;# hasKickDrumSpurs: boolean" style="text;strokeColor=none;fillColor=none;align=left;verticalAlign=top;spacingLeft=4;spacingRight=4;overflow=hidden;rotatable=0;points=[[0,0.5],[1,0.5]];portConstraint=eastwest;whiteSpace=wrap;html=1;" parent="kGK1JUWnZpYBYA5NfRCf-4" vertex="1">
          <mxGeometry y="40" width="210" height="46" as="geometry" />
        </mxCell>
        <mxCell id="kGK1JUWnZpYBYA5NfRCf-6" value="" style="line;strokeWidth=1;fillColor=none;align=left;verticalAlign=middle;spacingTop=-1;spacingLeft=3;spacingRight=3;rotatable=0;labelPosition=right;points=[];portConstraint=eastwest;strokeColor=inherit;" parent="kGK1JUWnZpYBYA5NfRCf-4" vertex="1">
          <mxGeometry y="86" width="210" height="8" as="geometry" />
        </mxCell>
        <mxCell id="kGK1JUWnZpYBYA5NfRCf-7" value="+ BassDrum()&lt;br&gt;+ BassDrum(double, int, boolean)&lt;br&gt;+ BassDrum(BassDrum bd)&lt;br&gt;+ getDiameter(): double&lt;br&gt;+ getNbOfLugs(): int&lt;br&gt;+ hasKickDrumSpurs(): boolean&lt;br&gt;+ toString(): String&lt;br&gt;+ equals(Object o): boolean" style="text;strokeColor=none;fillColor=none;align=left;verticalAlign=top;spacingLeft=4;spacingRight=4;overflow=hidden;rotatable=0;points=[[0,0.5],[1,0.5]];portConstraint=eastwest;whiteSpace=wrap;html=1;" parent="kGK1JUWnZpYBYA5NfRCf-4" vertex="1">
          <mxGeometry y="94" width="210" height="126" as="geometry" />
        </mxCell>
        <mxCell id="kGK1JUWnZpYBYA5NfRCf-8" value="" style="endArrow=none;html=1;rounded=0;exitX=0.5;exitY=0;exitDx=0;exitDy=0;" parent="1" source="kGK1JUWnZpYBYA5NfRCf-4" edge="1">
          <mxGeometry width="50" height="50" relative="1" as="geometry">
            <mxPoint x="-520" y="1135" as="sourcePoint" />
            <mxPoint x="-525" y="860" as="targetPoint" />
          </mxGeometry>
        </mxCell>
        <mxCell id="Nkh8paicLl_Jq4dYLejF-1" value="Castanets &amp;lt;&amp;lt;extends&amp;gt;&amp;gt; Percussion" style="swimlane;fontStyle=1;align=center;verticalAlign=top;childLayout=stackLayout;horizontal=1;startSize=40;horizontalStack=0;resizeParent=1;resizeParentMax=0;resizeLast=0;collapsible=1;marginBottom=0;whiteSpace=wrap;html=1;" parent="1" vertex="1">
          <mxGeometry x="-490" y="902.5" width="160" height="210" as="geometry" />
        </mxCell>
        <mxCell id="Nkh8paicLl_Jq4dYLejF-2" value="# nbOfPairs: int&lt;br&gt;# strapType: String" style="text;strokeColor=none;fillColor=none;align=left;verticalAlign=top;spacingLeft=4;spacingRight=4;overflow=hidden;rotatable=0;points=[[0,0.5],[1,0.5]];portConstraint=eastwest;whiteSpace=wrap;html=1;" parent="Nkh8paicLl_Jq4dYLejF-1" vertex="1">
          <mxGeometry y="40" width="160" height="40" as="geometry" />
        </mxCell>
        <mxCell id="Nkh8paicLl_Jq4dYLejF-3" value="" style="line;strokeWidth=1;fillColor=none;align=left;verticalAlign=middle;spacingTop=-1;spacingLeft=3;spacingRight=3;rotatable=0;labelPosition=right;points=[];portConstraint=eastwest;strokeColor=inherit;" parent="Nkh8paicLl_Jq4dYLejF-1" vertex="1">
          <mxGeometry y="80" width="160" height="8" as="geometry" />
        </mxCell>
        <mxCell id="Nkh8paicLl_Jq4dYLejF-4" value="+ Castanets()&lt;br&gt;+ Castanets(int, String)&lt;br&gt;+ Castanets(Castanets C)&lt;br&gt;+ getNbOfPairs(): int&lt;br&gt;+ getStrapType(): String&lt;br&gt;+ toString(): String&lt;br&gt;+ equals(Object o): boolean" style="text;strokeColor=none;fillColor=none;align=left;verticalAlign=top;spacingLeft=4;spacingRight=4;overflow=hidden;rotatable=0;points=[[0,0.5],[1,0.5]];portConstraint=eastwest;whiteSpace=wrap;html=1;" parent="Nkh8paicLl_Jq4dYLejF-1" vertex="1">
          <mxGeometry y="88" width="160" height="122" as="geometry" />
        </mxCell>
        <mxCell id="Nkh8paicLl_Jq4dYLejF-5" value="" style="endArrow=none;html=1;rounded=0;" parent="1" edge="1">
          <mxGeometry width="50" height="50" relative="1" as="geometry">
            <mxPoint x="-405" y="902.5" as="sourcePoint" />
            <mxPoint x="-405" y="862.5" as="targetPoint" />
          </mxGeometry>
        </mxCell>
        <mxCell id="dwFgcWR94XW2rhWF0C0Z-1" value="Extends" style="endArrow=block;endSize=16;endFill=0;html=1;rounded=0;entryX=0.503;entryY=1.02;entryDx=0;entryDy=0;entryPerimeter=0;" parent="1" target="wWvbnRaUt92-p2GNaJ0o-46" edge="1">
          <mxGeometry width="160" relative="1" as="geometry">
            <mxPoint x="-65" y="880" as="sourcePoint" />
            <mxPoint x="-5" y="826" as="targetPoint" />
          </mxGeometry>
        </mxCell>
        <mxCell id="dwFgcWR94XW2rhWF0C0Z-2" value="Flute &amp;lt;&amp;lt;extends&amp;gt;&amp;gt; WoodWind" style="swimlane;fontStyle=1;align=center;verticalAlign=top;childLayout=stackLayout;horizontal=1;startSize=26;horizontalStack=0;resizeParent=1;resizeParentMax=0;resizeLast=0;collapsible=1;marginBottom=0;whiteSpace=wrap;html=1;" parent="1" vertex="1">
          <mxGeometry x="-265" y="900" width="185" height="180" as="geometry" />
        </mxCell>
        <mxCell id="dwFgcWR94XW2rhWF0C0Z-3" value="# lipPlateMaterial: String&lt;br&gt;# nbOfToneHoles: int" style="text;strokeColor=none;fillColor=none;align=left;verticalAlign=top;spacingLeft=4;spacingRight=4;overflow=hidden;rotatable=0;points=[[0,0.5],[1,0.5]];portConstraint=eastwest;whiteSpace=wrap;html=1;" parent="dwFgcWR94XW2rhWF0C0Z-2" vertex="1">
          <mxGeometry y="26" width="185" height="34" as="geometry" />
        </mxCell>
        <mxCell id="dwFgcWR94XW2rhWF0C0Z-4" value="" style="line;strokeWidth=1;fillColor=none;align=left;verticalAlign=middle;spacingTop=-1;spacingLeft=3;spacingRight=3;rotatable=0;labelPosition=right;points=[];portConstraint=eastwest;strokeColor=inherit;" parent="dwFgcWR94XW2rhWF0C0Z-2" vertex="1">
          <mxGeometry y="60" width="185" height="8" as="geometry" />
        </mxCell>
        <mxCell id="dwFgcWR94XW2rhWF0C0Z-5" value="+ Flute()&lt;br&gt;+ Flute(String, int)&lt;br&gt;+ Flute(Flute F)&lt;br&gt;+ getLipPlateMaterial(): String&lt;br&gt;+ getNbOfToneHoles(): int&lt;br&gt;+ toString(): String&lt;br&gt;+ equals(Object o): boolean" style="text;strokeColor=none;fillColor=none;align=left;verticalAlign=top;spacingLeft=4;spacingRight=4;overflow=hidden;rotatable=0;points=[[0,0.5],[1,0.5]];portConstraint=eastwest;whiteSpace=wrap;html=1;" parent="dwFgcWR94XW2rhWF0C0Z-2" vertex="1">
          <mxGeometry y="68" width="185" height="112" as="geometry" />
        </mxCell>
        <mxCell id="dwFgcWR94XW2rhWF0C0Z-6" value="Clarinet &amp;lt;&amp;lt;extends&amp;gt;&amp;gt; WoodWind" style="swimlane;fontStyle=1;align=center;verticalAlign=top;childLayout=stackLayout;horizontal=1;startSize=26;horizontalStack=0;resizeParent=1;resizeParentMax=0;resizeLast=0;collapsible=1;marginBottom=0;whiteSpace=wrap;html=1;" parent="1" vertex="1">
          <mxGeometry x="-175" y="1135" width="220" height="180" as="geometry" />
        </mxCell>
        <mxCell id="dwFgcWR94XW2rhWF0C0Z-7" value="# clarinetType: String&amp;nbsp;" style="text;strokeColor=none;fillColor=none;align=left;verticalAlign=top;spacingLeft=4;spacingRight=4;overflow=hidden;rotatable=0;points=[[0,0.5],[1,0.5]];portConstraint=eastwest;whiteSpace=wrap;html=1;" parent="dwFgcWR94XW2rhWF0C0Z-6" vertex="1">
          <mxGeometry y="26" width="220" height="34" as="geometry" />
        </mxCell>
        <mxCell id="dwFgcWR94XW2rhWF0C0Z-8" value="" style="line;strokeWidth=1;fillColor=none;align=left;verticalAlign=middle;spacingTop=-1;spacingLeft=3;spacingRight=3;rotatable=0;labelPosition=right;points=[];portConstraint=eastwest;strokeColor=inherit;" parent="dwFgcWR94XW2rhWF0C0Z-6" vertex="1">
          <mxGeometry y="60" width="220" height="8" as="geometry" />
        </mxCell>
        <mxCell id="dwFgcWR94XW2rhWF0C0Z-9" value="+ Clarinet()&lt;br&gt;+ Clarinet(String, String)&lt;br&gt;+ Clarinet(Clarinet Ct)&lt;br&gt;+ getClarinetType(): String&lt;br&gt;+ toString(): String&lt;br&gt;+ equals(Object o): boolean" style="text;strokeColor=none;fillColor=none;align=left;verticalAlign=top;spacingLeft=4;spacingRight=4;overflow=hidden;rotatable=0;points=[[0,0.5],[1,0.5]];portConstraint=eastwest;whiteSpace=wrap;html=1;" parent="dwFgcWR94XW2rhWF0C0Z-6" vertex="1">
          <mxGeometry y="68" width="220" height="112" as="geometry" />
        </mxCell>
        <mxCell id="dwFgcWR94XW2rhWF0C0Z-10" value="Saxophone &amp;lt;&amp;lt;extends&amp;gt;&amp;gt; WoodWnd" style="swimlane;fontStyle=1;align=center;verticalAlign=top;childLayout=stackLayout;horizontal=1;startSize=40;horizontalStack=0;resizeParent=1;resizeParentMax=0;resizeLast=0;collapsible=1;marginBottom=0;whiteSpace=wrap;html=1;" parent="1" vertex="1">
          <mxGeometry x="-55" y="900" width="220" height="200" as="geometry" />
        </mxCell>
        <mxCell id="dwFgcWR94XW2rhWF0C0Z-11" value="# nbOfKeys: int&lt;br&gt;# hasAdjustableThumbHook:&amp;nbsp;boolean" style="text;strokeColor=none;fillColor=none;align=left;verticalAlign=top;spacingLeft=4;spacingRight=4;overflow=hidden;rotatable=0;points=[[0,0.5],[1,0.5]];portConstraint=eastwest;whiteSpace=wrap;html=1;" parent="dwFgcWR94XW2rhWF0C0Z-10" vertex="1">
          <mxGeometry y="40" width="220" height="36" as="geometry" />
        </mxCell>
        <mxCell id="dwFgcWR94XW2rhWF0C0Z-12" value="" style="line;strokeWidth=1;fillColor=none;align=left;verticalAlign=middle;spacingTop=-1;spacingLeft=3;spacingRight=3;rotatable=0;labelPosition=right;points=[];portConstraint=eastwest;strokeColor=inherit;" parent="dwFgcWR94XW2rhWF0C0Z-10" vertex="1">
          <mxGeometry y="76" width="220" height="8" as="geometry" />
        </mxCell>
        <mxCell id="dwFgcWR94XW2rhWF0C0Z-13" value="+ Saxophone()&lt;br&gt;+ Saxohpne(int, boolean)&lt;br&gt;+ Saxophone(Saxophone S)&lt;br&gt;+ getNbOfKeys(): int&lt;br&gt;+ hasAdjustableThumbHook(): boolean&lt;br&gt;+ toString(): String&lt;br&gt;+ equals(Object o): boolean" style="text;strokeColor=none;fillColor=none;align=left;verticalAlign=top;spacingLeft=4;spacingRight=4;overflow=hidden;rotatable=0;points=[[0,0.5],[1,0.5]];portConstraint=eastwest;whiteSpace=wrap;html=1;" parent="dwFgcWR94XW2rhWF0C0Z-10" vertex="1">
          <mxGeometry y="84" width="220" height="116" as="geometry" />
        </mxCell>
        <mxCell id="SvlsId8xjGV8LTgVtgps-1" value="" style="endArrow=none;html=1;rounded=0;" parent="1" edge="1">
          <mxGeometry width="50" height="50" relative="1" as="geometry">
            <mxPoint x="-185" y="870" as="sourcePoint" />
            <mxPoint x="55" y="870" as="targetPoint" />
          </mxGeometry>
        </mxCell>
        <mxCell id="885F8VNAM9rBON3wv21B-1" value="Guitar &amp;lt;&amp;lt;extends&amp;gt;&amp;gt; StringInst" style="swimlane;fontStyle=1;align=center;verticalAlign=top;childLayout=stackLayout;horizontal=1;startSize=26;horizontalStack=0;resizeParent=1;resizeParentMax=0;resizeLast=0;collapsible=1;marginBottom=0;whiteSpace=wrap;html=1;" parent="1" vertex="1">
          <mxGeometry x="195" y="900" width="210" height="200" as="geometry" />
        </mxCell>
        <mxCell id="885F8VNAM9rBON3wv21B-2" value="# bridgeType: String&lt;br&gt;# scaleLength: double" style="text;strokeColor=none;fillColor=none;align=left;verticalAlign=top;spacingLeft=4;spacingRight=4;overflow=hidden;rotatable=0;points=[[0,0.5],[1,0.5]];portConstraint=eastwest;whiteSpace=wrap;html=1;" parent="885F8VNAM9rBON3wv21B-1" vertex="1">
          <mxGeometry y="26" width="210" height="44" as="geometry" />
        </mxCell>
        <mxCell id="885F8VNAM9rBON3wv21B-3" value="" style="line;strokeWidth=1;fillColor=none;align=left;verticalAlign=middle;spacingTop=-1;spacingLeft=3;spacingRight=3;rotatable=0;labelPosition=right;points=[];portConstraint=eastwest;strokeColor=inherit;" parent="885F8VNAM9rBON3wv21B-1" vertex="1">
          <mxGeometry y="70" width="210" height="8" as="geometry" />
        </mxCell>
        <mxCell id="885F8VNAM9rBON3wv21B-4" value="+ Guitar()&lt;br&gt;+ Guitar(String, double)&lt;br&gt;+ Guitar(Guitar G)&lt;br&gt;+ getBridgeType(): String&lt;br&gt;+ getScaleLength(): double&lt;br&gt;+ toString(): String&lt;br&gt;+ equals(Object o): boolean" style="text;strokeColor=none;fillColor=none;align=left;verticalAlign=top;spacingLeft=4;spacingRight=4;overflow=hidden;rotatable=0;points=[[0,0.5],[1,0.5]];portConstraint=eastwest;whiteSpace=wrap;html=1;" parent="885F8VNAM9rBON3wv21B-1" vertex="1">
          <mxGeometry y="78" width="210" height="122" as="geometry" />
        </mxCell>
        <mxCell id="885F8VNAM9rBON3wv21B-5" value="Cello &amp;lt;&amp;lt;extends&amp;gt;&amp;gt; StringInst" style="swimlane;fontStyle=1;align=center;verticalAlign=top;childLayout=stackLayout;horizontal=1;startSize=26;horizontalStack=0;resizeParent=1;resizeParentMax=0;resizeLast=0;collapsible=1;marginBottom=0;whiteSpace=wrap;html=1;" parent="1" vertex="1">
          <mxGeometry x="325" y="1120" width="210" height="190" as="geometry" />
        </mxCell>
        <mxCell id="885F8VNAM9rBON3wv21B-6" value="# pegsMaterial: String&lt;br&gt;# endpinType: String" style="text;strokeColor=none;fillColor=none;align=left;verticalAlign=top;spacingLeft=4;spacingRight=4;overflow=hidden;rotatable=0;points=[[0,0.5],[1,0.5]];portConstraint=eastwest;whiteSpace=wrap;html=1;" parent="885F8VNAM9rBON3wv21B-5" vertex="1">
          <mxGeometry y="26" width="210" height="34" as="geometry" />
        </mxCell>
        <mxCell id="885F8VNAM9rBON3wv21B-7" value="" style="line;strokeWidth=1;fillColor=none;align=left;verticalAlign=middle;spacingTop=-1;spacingLeft=3;spacingRight=3;rotatable=0;labelPosition=right;points=[];portConstraint=eastwest;strokeColor=inherit;" parent="885F8VNAM9rBON3wv21B-5" vertex="1">
          <mxGeometry y="60" width="210" height="8" as="geometry" />
        </mxCell>
        <mxCell id="885F8VNAM9rBON3wv21B-8" value="+ Cello()&lt;br&gt;+ Cello(String, String)&lt;br&gt;+ Cello(Cello Cel)&lt;br&gt;+ getPegsMaterial(): String&lt;br&gt;+ getEndpinType(): String&lt;br&gt;+ toString(): String&lt;br&gt;+ equals(Object o): boolean" style="text;strokeColor=none;fillColor=none;align=left;verticalAlign=top;spacingLeft=4;spacingRight=4;overflow=hidden;rotatable=0;points=[[0,0.5],[1,0.5]];portConstraint=eastwest;whiteSpace=wrap;html=1;" parent="885F8VNAM9rBON3wv21B-5" vertex="1">
          <mxGeometry y="68" width="210" height="122" as="geometry" />
        </mxCell>
        <mxCell id="885F8VNAM9rBON3wv21B-9" value="Violin &amp;lt;&amp;lt;extends&amp;gt;&amp;gt; StringInst" style="swimlane;fontStyle=1;align=center;verticalAlign=top;childLayout=stackLayout;horizontal=1;startSize=26;horizontalStack=0;resizeParent=1;resizeParentMax=0;resizeLast=0;collapsible=1;marginBottom=0;whiteSpace=wrap;html=1;" parent="1" vertex="1">
          <mxGeometry x="445" y="900" width="210" height="190" as="geometry" />
        </mxCell>
        <mxCell id="885F8VNAM9rBON3wv21B-10" value="# bowType: String&lt;br&gt;# chinRestType: String&lt;br&gt;" style="text;strokeColor=none;fillColor=none;align=left;verticalAlign=top;spacingLeft=4;spacingRight=4;overflow=hidden;rotatable=0;points=[[0,0.5],[1,0.5]];portConstraint=eastwest;whiteSpace=wrap;html=1;" parent="885F8VNAM9rBON3wv21B-9" vertex="1">
          <mxGeometry y="26" width="210" height="42" as="geometry" />
        </mxCell>
        <mxCell id="885F8VNAM9rBON3wv21B-11" value="" style="line;strokeWidth=1;fillColor=none;align=left;verticalAlign=middle;spacingTop=-1;spacingLeft=3;spacingRight=3;rotatable=0;labelPosition=right;points=[];portConstraint=eastwest;strokeColor=inherit;" parent="885F8VNAM9rBON3wv21B-9" vertex="1">
          <mxGeometry y="68" width="210" height="8" as="geometry" />
        </mxCell>
        <mxCell id="885F8VNAM9rBON3wv21B-12" value="+ Violin()&lt;br&gt;+ Violin(String, String)&lt;br&gt;+ Violin(Violin v)&lt;br&gt;+ getBowType(): String&lt;br&gt;+ getChinRestType(): String&lt;br&gt;+ toString(): String&lt;br&gt;+ equals(Object o): boolean" style="text;strokeColor=none;fillColor=none;align=left;verticalAlign=top;spacingLeft=4;spacingRight=4;overflow=hidden;rotatable=0;points=[[0,0.5],[1,0.5]];portConstraint=eastwest;whiteSpace=wrap;html=1;" parent="885F8VNAM9rBON3wv21B-9" vertex="1">
          <mxGeometry y="76" width="210" height="114" as="geometry" />
        </mxCell>
        <mxCell id="KZkgwkgVbWf41FXr7WjS-1" value="Piano &amp;lt;&amp;lt;extends&amp;gt;&amp;gt; Keyboard" style="swimlane;fontStyle=1;align=center;verticalAlign=top;childLayout=stackLayout;horizontal=1;startSize=26;horizontalStack=0;resizeParent=1;resizeParentMax=0;resizeLast=0;collapsible=1;marginBottom=0;whiteSpace=wrap;html=1;" parent="1" vertex="1">
          <mxGeometry x="675" y="1020" width="210" height="190" as="geometry" />
        </mxCell>
        <mxCell id="KZkgwkgVbWf41FXr7WjS-2" value="# actionType: String" style="text;strokeColor=none;fillColor=none;align=left;verticalAlign=top;spacingLeft=4;spacingRight=4;overflow=hidden;rotatable=0;points=[[0,0.5],[1,0.5]];portConstraint=eastwest;whiteSpace=wrap;html=1;" parent="KZkgwkgVbWf41FXr7WjS-1" vertex="1">
          <mxGeometry y="26" width="210" height="34" as="geometry" />
        </mxCell>
        <mxCell id="KZkgwkgVbWf41FXr7WjS-3" value="" style="line;strokeWidth=1;fillColor=none;align=left;verticalAlign=middle;spacingTop=-1;spacingLeft=3;spacingRight=3;rotatable=0;labelPosition=right;points=[];portConstraint=eastwest;strokeColor=inherit;" parent="KZkgwkgVbWf41FXr7WjS-1" vertex="1">
          <mxGeometry y="60" width="210" height="8" as="geometry" />
        </mxCell>
        <mxCell id="KZkgwkgVbWf41FXr7WjS-4" value="+ Piano()&lt;br&gt;+ Piano(String)&lt;br&gt;+ Piano(Piano P)&lt;br&gt;+ getActiontype(): String&lt;br&gt;+ toString(): String&lt;br&gt;+ equals(Object o): boolean" style="text;strokeColor=none;fillColor=none;align=left;verticalAlign=top;spacingLeft=4;spacingRight=4;overflow=hidden;rotatable=0;points=[[0,0.5],[1,0.5]];portConstraint=eastwest;whiteSpace=wrap;html=1;" parent="KZkgwkgVbWf41FXr7WjS-1" vertex="1">
          <mxGeometry y="68" width="210" height="122" as="geometry" />
        </mxCell>
        <mxCell id="KZkgwkgVbWf41FXr7WjS-5" value="Synthesiser &amp;lt;&amp;lt;extends&amp;gt;&amp;gt; Keyboard" style="swimlane;fontStyle=1;align=center;verticalAlign=top;childLayout=stackLayout;horizontal=1;startSize=26;horizontalStack=0;resizeParent=1;resizeParentMax=0;resizeLast=0;collapsible=1;marginBottom=0;whiteSpace=wrap;html=1;" parent="1" vertex="1">
          <mxGeometry x="795" y="1260" width="210" height="206" as="geometry" />
        </mxCell>
        <mxCell id="KZkgwkgVbWf41FXr7WjS-6" value="# polyphony: String&lt;br&gt;# soundEngine: String&lt;br&gt;# nbOfOscillators; int" style="text;strokeColor=none;fillColor=none;align=left;verticalAlign=top;spacingLeft=4;spacingRight=4;overflow=hidden;rotatable=0;points=[[0,0.5],[1,0.5]];portConstraint=eastwest;whiteSpace=wrap;html=1;" parent="KZkgwkgVbWf41FXr7WjS-5" vertex="1">
          <mxGeometry y="26" width="210" height="50" as="geometry" />
        </mxCell>
        <mxCell id="KZkgwkgVbWf41FXr7WjS-7" value="" style="line;strokeWidth=1;fillColor=none;align=left;verticalAlign=middle;spacingTop=-1;spacingLeft=3;spacingRight=3;rotatable=0;labelPosition=right;points=[];portConstraint=eastwest;strokeColor=inherit;" parent="KZkgwkgVbWf41FXr7WjS-5" vertex="1">
          <mxGeometry y="76" width="210" height="8" as="geometry" />
        </mxCell>
        <mxCell id="KZkgwkgVbWf41FXr7WjS-8" value="+&amp;nbsp;Synthesiser()&lt;br&gt;+&amp;nbsp;Synthesiser(String, String, int)&lt;br&gt;+&amp;nbsp;Synthesiser(Synthesiser Sz)&lt;br&gt;+ getPolyphony(): String&lt;br&gt;+ getSoundEngine(): String&lt;br&gt;+ getNbOfOscillators(): int&lt;br&gt;+ toString(): String&lt;br&gt;+ equals(Object o): boolean" style="text;strokeColor=none;fillColor=none;align=left;verticalAlign=top;spacingLeft=4;spacingRight=4;overflow=hidden;rotatable=0;points=[[0,0.5],[1,0.5]];portConstraint=eastwest;whiteSpace=wrap;html=1;" parent="KZkgwkgVbWf41FXr7WjS-5" vertex="1">
          <mxGeometry y="84" width="210" height="122" as="geometry" />
        </mxCell>
        <mxCell id="KZkgwkgVbWf41FXr7WjS-9" value="Organ &amp;lt;&amp;lt;extends&amp;gt;&amp;gt; Keyboard" style="swimlane;fontStyle=1;align=center;verticalAlign=top;childLayout=stackLayout;horizontal=1;startSize=26;horizontalStack=0;resizeParent=1;resizeParentMax=0;resizeLast=0;collapsible=1;marginBottom=0;whiteSpace=wrap;html=1;" parent="1" vertex="1">
          <mxGeometry x="915" y="1030" width="210" height="190" as="geometry" />
        </mxCell>
        <mxCell id="KZkgwkgVbWf41FXr7WjS-10" value="# nbOfManuals: int&lt;br&gt;# nbOfPipes: int" style="text;strokeColor=none;fillColor=none;align=left;verticalAlign=top;spacingLeft=4;spacingRight=4;overflow=hidden;rotatable=0;points=[[0,0.5],[1,0.5]];portConstraint=eastwest;whiteSpace=wrap;html=1;" parent="KZkgwkgVbWf41FXr7WjS-9" vertex="1">
          <mxGeometry y="26" width="210" height="42" as="geometry" />
        </mxCell>
        <mxCell id="KZkgwkgVbWf41FXr7WjS-11" value="" style="line;strokeWidth=1;fillColor=none;align=left;verticalAlign=middle;spacingTop=-1;spacingLeft=3;spacingRight=3;rotatable=0;labelPosition=right;points=[];portConstraint=eastwest;strokeColor=inherit;" parent="KZkgwkgVbWf41FXr7WjS-9" vertex="1">
          <mxGeometry y="68" width="210" height="8" as="geometry" />
        </mxCell>
        <mxCell id="KZkgwkgVbWf41FXr7WjS-12" value="+ Organ()&lt;br&gt;+ Organ(int, int)&lt;br&gt;+ Organ(Organ og)&lt;br&gt;+ getNbOfManuals(): int&lt;br&gt;+ getNbOfPipes(): int&lt;br&gt;+ toString(): String&lt;br&gt;+ equals(Object o): boolean" style="text;strokeColor=none;fillColor=none;align=left;verticalAlign=top;spacingLeft=4;spacingRight=4;overflow=hidden;rotatable=0;points=[[0,0.5],[1,0.5]];portConstraint=eastwest;whiteSpace=wrap;html=1;" parent="KZkgwkgVbWf41FXr7WjS-9" vertex="1">
          <mxGeometry y="76" width="210" height="114" as="geometry" />
        </mxCell>
        <mxCell id="tX26VZe_4oqFnaIGhmJL-1" value="Trumpet &amp;lt;&amp;lt;extends&amp;gt;&amp;gt; Brass" style="swimlane;fontStyle=1;align=center;verticalAlign=top;childLayout=stackLayout;horizontal=1;startSize=26;horizontalStack=0;resizeParent=1;resizeParentMax=0;resizeLast=0;collapsible=1;marginBottom=0;whiteSpace=wrap;html=1;" parent="1" vertex="1">
          <mxGeometry x="1145" y="941" width="210" height="200" as="geometry" />
        </mxCell>
        <mxCell id="tX26VZe_4oqFnaIGhmJL-2" value="# weightDistribution: String&lt;br&gt;# waterKeyType: String&lt;br&gt;" style="text;strokeColor=none;fillColor=none;align=left;verticalAlign=top;spacingLeft=4;spacingRight=4;overflow=hidden;rotatable=0;points=[[0,0.5],[1,0.5]];portConstraint=eastwest;whiteSpace=wrap;html=1;" parent="tX26VZe_4oqFnaIGhmJL-1" vertex="1">
          <mxGeometry y="26" width="210" height="44" as="geometry" />
        </mxCell>
        <mxCell id="tX26VZe_4oqFnaIGhmJL-3" value="" style="line;strokeWidth=1;fillColor=none;align=left;verticalAlign=middle;spacingTop=-1;spacingLeft=3;spacingRight=3;rotatable=0;labelPosition=right;points=[];portConstraint=eastwest;strokeColor=inherit;" parent="tX26VZe_4oqFnaIGhmJL-1" vertex="1">
          <mxGeometry y="70" width="210" height="8" as="geometry" />
        </mxCell>
        <mxCell id="tX26VZe_4oqFnaIGhmJL-4" value="+ Trumpet()&lt;br&gt;+ Trumpet(String, String)&lt;br&gt;+ Trumpet(Trumpet T)&lt;br&gt;+ getWeightDistribution(): String&lt;br&gt;+ getWaterKeyType(): String&lt;br&gt;+ toString(): String&lt;br&gt;+ equals(Object o): boolean" style="text;strokeColor=none;fillColor=none;align=left;verticalAlign=top;spacingLeft=4;spacingRight=4;overflow=hidden;rotatable=0;points=[[0,0.5],[1,0.5]];portConstraint=eastwest;whiteSpace=wrap;html=1;" parent="tX26VZe_4oqFnaIGhmJL-1" vertex="1">
          <mxGeometry y="78" width="210" height="122" as="geometry" />
        </mxCell>
        <mxCell id="tX26VZe_4oqFnaIGhmJL-5" value="Euphonium &amp;lt;&amp;lt;extends&amp;gt;&amp;gt; Brass" style="swimlane;fontStyle=1;align=center;verticalAlign=top;childLayout=stackLayout;horizontal=1;startSize=26;horizontalStack=0;resizeParent=1;resizeParentMax=0;resizeLast=0;collapsible=1;marginBottom=0;whiteSpace=wrap;html=1;" parent="1" vertex="1">
          <mxGeometry x="1275" y="1161" width="210" height="200" as="geometry" />
        </mxCell>
        <mxCell id="tX26VZe_4oqFnaIGhmJL-6" value="# lacquerThickness: double&lt;br&gt;# tuningSlideType: String" style="text;strokeColor=none;fillColor=none;align=left;verticalAlign=top;spacingLeft=4;spacingRight=4;overflow=hidden;rotatable=0;points=[[0,0.5],[1,0.5]];portConstraint=eastwest;whiteSpace=wrap;html=1;" parent="tX26VZe_4oqFnaIGhmJL-5" vertex="1">
          <mxGeometry y="26" width="210" height="44" as="geometry" />
        </mxCell>
        <mxCell id="tX26VZe_4oqFnaIGhmJL-7" value="" style="line;strokeWidth=1;fillColor=none;align=left;verticalAlign=middle;spacingTop=-1;spacingLeft=3;spacingRight=3;rotatable=0;labelPosition=right;points=[];portConstraint=eastwest;strokeColor=inherit;" parent="tX26VZe_4oqFnaIGhmJL-5" vertex="1">
          <mxGeometry y="70" width="210" height="8" as="geometry" />
        </mxCell>
        <mxCell id="tX26VZe_4oqFnaIGhmJL-8" value="+ Euphonium()&lt;br&gt;+ Euphonium(double, String)&lt;br&gt;+ Euphonium(Euphonium E)&lt;br&gt;+ getLacquerThickness(): double&lt;br&gt;+ getTuningSlideType(): String&lt;br&gt;+ toString(): String&lt;br&gt;+ equals(Object o): boolean" style="text;strokeColor=none;fillColor=none;align=left;verticalAlign=top;spacingLeft=4;spacingRight=4;overflow=hidden;rotatable=0;points=[[0,0.5],[1,0.5]];portConstraint=eastwest;whiteSpace=wrap;html=1;" parent="tX26VZe_4oqFnaIGhmJL-5" vertex="1">
          <mxGeometry y="78" width="210" height="122" as="geometry" />
        </mxCell>
        <mxCell id="tX26VZe_4oqFnaIGhmJL-9" value="Cornet &amp;lt;&amp;lt;extends&amp;gt;&amp;gt; Brass" style="swimlane;fontStyle=1;align=center;verticalAlign=top;childLayout=stackLayout;horizontal=1;startSize=26;horizontalStack=0;resizeParent=1;resizeParentMax=0;resizeLast=0;collapsible=1;marginBottom=0;whiteSpace=wrap;html=1;" parent="1" vertex="1">
          <mxGeometry x="1385" y="941" width="210" height="190" as="geometry" />
        </mxCell>
        <mxCell id="tX26VZe_4oqFnaIGhmJL-10" value="# bracingType: String&lt;br&gt;# hasThumbRing: boolean" style="text;strokeColor=none;fillColor=none;align=left;verticalAlign=top;spacingLeft=4;spacingRight=4;overflow=hidden;rotatable=0;points=[[0,0.5],[1,0.5]];portConstraint=eastwest;whiteSpace=wrap;html=1;" parent="tX26VZe_4oqFnaIGhmJL-9" vertex="1">
          <mxGeometry y="26" width="210" height="42" as="geometry" />
        </mxCell>
        <mxCell id="tX26VZe_4oqFnaIGhmJL-11" value="" style="line;strokeWidth=1;fillColor=none;align=left;verticalAlign=middle;spacingTop=-1;spacingLeft=3;spacingRight=3;rotatable=0;labelPosition=right;points=[];portConstraint=eastwest;strokeColor=inherit;" parent="tX26VZe_4oqFnaIGhmJL-9" vertex="1">
          <mxGeometry y="68" width="210" height="8" as="geometry" />
        </mxCell>
        <mxCell id="tX26VZe_4oqFnaIGhmJL-12" value="+ Cornet()&lt;br&gt;+ Cornet(String, boolean)&lt;br&gt;+ Cornet(Cornet Co)&lt;br&gt;+ getBracingType(): String&lt;br&gt;+ hasThumbRing(): boolean&lt;br&gt;+ toString(): String&lt;br&gt;+ equals(Object o): boolean" style="text;strokeColor=none;fillColor=none;align=left;verticalAlign=top;spacingLeft=4;spacingRight=4;overflow=hidden;rotatable=0;points=[[0,0.5],[1,0.5]];portConstraint=eastwest;whiteSpace=wrap;html=1;" parent="tX26VZe_4oqFnaIGhmJL-9" vertex="1">
          <mxGeometry y="76" width="210" height="114" as="geometry" />
        </mxCell>
        <mxCell id="d9fMiw-pMe2V4Ihs62BI-1" value="" style="endArrow=none;html=1;rounded=0;exitX=0.5;exitY=0;exitDx=0;exitDy=0;" parent="1" source="dwFgcWR94XW2rhWF0C0Z-6" edge="1">
          <mxGeometry width="50" height="50" relative="1" as="geometry">
            <mxPoint x="135" y="1080" as="sourcePoint" />
            <mxPoint x="-65" y="870" as="targetPoint" />
          </mxGeometry>
        </mxCell>
        <mxCell id="d9fMiw-pMe2V4Ihs62BI-2" value="" style="endArrow=none;html=1;rounded=0;" parent="1" edge="1">
          <mxGeometry width="50" height="50" relative="1" as="geometry">
            <mxPoint x="-185" y="900" as="sourcePoint" />
            <mxPoint x="-185" y="870" as="targetPoint" />
          </mxGeometry>
        </mxCell>
        <mxCell id="d9fMiw-pMe2V4Ihs62BI-4" value="" style="endArrow=none;html=1;rounded=0;" parent="1" edge="1">
          <mxGeometry width="50" height="50" relative="1" as="geometry">
            <mxPoint x="55" y="900" as="sourcePoint" />
            <mxPoint x="55" y="870" as="targetPoint" />
          </mxGeometry>
        </mxCell>
        <mxCell id="d9fMiw-pMe2V4Ihs62BI-6" value="" style="endArrow=none;html=1;rounded=0;exitX=0.5;exitY=0;exitDx=0;exitDy=0;" parent="1" source="885F8VNAM9rBON3wv21B-5" edge="1">
          <mxGeometry width="50" height="50" relative="1" as="geometry">
            <mxPoint x="415" y="1100" as="sourcePoint" />
            <mxPoint x="425" y="890" as="targetPoint" />
          </mxGeometry>
        </mxCell>
        <mxCell id="d9fMiw-pMe2V4Ihs62BI-7" value="Extends" style="endArrow=block;endSize=16;endFill=0;html=1;rounded=0;entryX=0.567;entryY=1.053;entryDx=0;entryDy=0;entryPerimeter=0;" parent="1" target="dEGA_bCqO4jVMYCDkHFc-4" edge="1">
          <mxGeometry width="160" relative="1" as="geometry">
            <mxPoint x="426" y="890" as="sourcePoint" />
            <mxPoint x="430.63" y="843" as="targetPoint" />
          </mxGeometry>
        </mxCell>
        <mxCell id="d9fMiw-pMe2V4Ihs62BI-8" value="" style="endArrow=none;html=1;rounded=0;" parent="1" edge="1">
          <mxGeometry width="50" height="50" relative="1" as="geometry">
            <mxPoint x="309.63" y="890" as="sourcePoint" />
            <mxPoint x="549.63" y="890" as="targetPoint" />
          </mxGeometry>
        </mxCell>
        <mxCell id="d9fMiw-pMe2V4Ihs62BI-9" value="" style="endArrow=none;html=1;rounded=0;" parent="1" edge="1">
          <mxGeometry width="50" height="50" relative="1" as="geometry">
            <mxPoint x="310" y="900" as="sourcePoint" />
            <mxPoint x="309.63" y="890" as="targetPoint" />
          </mxGeometry>
        </mxCell>
        <mxCell id="d9fMiw-pMe2V4Ihs62BI-10" value="" style="endArrow=none;html=1;rounded=0;" parent="1" edge="1">
          <mxGeometry width="50" height="50" relative="1" as="geometry">
            <mxPoint x="550" y="900" as="sourcePoint" />
            <mxPoint x="549.63" y="890" as="targetPoint" />
          </mxGeometry>
        </mxCell>
        <mxCell id="d9fMiw-pMe2V4Ihs62BI-11" value="Extends" style="endArrow=block;endSize=16;endFill=0;html=1;rounded=0;entryX=0.606;entryY=1.004;entryDx=0;entryDy=0;entryPerimeter=0;" parent="1" target="qwCtivi4xOOy-BtwJOuV-4" edge="1">
          <mxGeometry width="160" relative="1" as="geometry">
            <mxPoint x="905" y="977" as="sourcePoint" />
            <mxPoint x="906" y="920" as="targetPoint" />
          </mxGeometry>
        </mxCell>
        <mxCell id="d9fMiw-pMe2V4Ihs62BI-13" value="" style="endArrow=none;html=1;rounded=0;exitX=0.5;exitY=0;exitDx=0;exitDy=0;" parent="1" source="KZkgwkgVbWf41FXr7WjS-1" edge="1">
          <mxGeometry width="50" height="50" relative="1" as="geometry">
            <mxPoint x="785" y="997" as="sourcePoint" />
            <mxPoint x="780" y="970" as="targetPoint" />
          </mxGeometry>
        </mxCell>
        <mxCell id="d9fMiw-pMe2V4Ihs62BI-14" value="" style="endArrow=none;html=1;rounded=0;exitX=0.5;exitY=0;exitDx=0;exitDy=0;" parent="1" source="KZkgwkgVbWf41FXr7WjS-9" edge="1">
          <mxGeometry width="50" height="50" relative="1" as="geometry">
            <mxPoint x="1025" y="997" as="sourcePoint" />
            <mxPoint x="1020" y="970" as="targetPoint" />
          </mxGeometry>
        </mxCell>
        <mxCell id="d9fMiw-pMe2V4Ihs62BI-15" value="" style="endArrow=none;html=1;rounded=0;exitX=0.5;exitY=0;exitDx=0;exitDy=0;" parent="1" source="KZkgwkgVbWf41FXr7WjS-5" edge="1">
          <mxGeometry width="50" height="50" relative="1" as="geometry">
            <mxPoint x="785" y="1210" as="sourcePoint" />
            <mxPoint x="905" y="970" as="targetPoint" />
          </mxGeometry>
        </mxCell>
        <mxCell id="d9fMiw-pMe2V4Ihs62BI-16" value="Extends" style="endArrow=block;endSize=16;endFill=0;html=1;rounded=0;entryX=0.503;entryY=1.02;entryDx=0;entryDy=0;entryPerimeter=0;" parent="1" edge="1">
          <mxGeometry width="160" relative="1" as="geometry">
            <mxPoint x="1355" y="919" as="sourcePoint" />
            <mxPoint x="1356" y="862" as="targetPoint" />
          </mxGeometry>
        </mxCell>
        <mxCell id="d9fMiw-pMe2V4Ihs62BI-17" value="" style="endArrow=none;html=1;rounded=0;" parent="1" edge="1">
          <mxGeometry width="50" height="50" relative="1" as="geometry">
            <mxPoint x="1235" y="920" as="sourcePoint" />
            <mxPoint x="1475" y="920" as="targetPoint" />
          </mxGeometry>
        </mxCell>
        <mxCell id="d9fMiw-pMe2V4Ihs62BI-18" value="" style="endArrow=none;html=1;rounded=0;" parent="1" edge="1">
          <mxGeometry width="50" height="50" relative="1" as="geometry">
            <mxPoint x="1235" y="940" as="sourcePoint" />
            <mxPoint x="1235" y="920" as="targetPoint" />
          </mxGeometry>
        </mxCell>
        <mxCell id="d9fMiw-pMe2V4Ihs62BI-19" value="" style="endArrow=none;html=1;rounded=0;" parent="1" edge="1">
          <mxGeometry width="50" height="50" relative="1" as="geometry">
            <mxPoint x="1475" y="940" as="sourcePoint" />
            <mxPoint x="1475" y="920" as="targetPoint" />
          </mxGeometry>
        </mxCell>
        <mxCell id="d9fMiw-pMe2V4Ihs62BI-20" value="" style="endArrow=none;html=1;rounded=0;exitX=0.457;exitY=0.01;exitDx=0;exitDy=0;exitPerimeter=0;" parent="1" source="tX26VZe_4oqFnaIGhmJL-5" edge="1">
          <mxGeometry width="50" height="50" relative="1" as="geometry">
            <mxPoint x="1325" y="970" as="sourcePoint" />
            <mxPoint x="1371" y="920" as="targetPoint" />
          </mxGeometry>
        </mxCell>
        <mxCell id="d9fMiw-pMe2V4Ihs62BI-22" value="" style="endArrow=none;html=1;rounded=0;" parent="1" edge="1">
          <mxGeometry width="50" height="50" relative="1" as="geometry">
            <mxPoint x="780" y="970" as="sourcePoint" />
            <mxPoint x="1020" y="970" as="targetPoint" />
          </mxGeometry>
        </mxCell>
        <mxCell id="N-MT3SJ8cDDi7K5SvlAo-1" value="&amp;lt;&amp;lt;Interface&amp;gt;&amp;gt;&lt;br&gt;Play" style="swimlane;fontStyle=0;childLayout=stackLayout;horizontal=1;startSize=26;fillColor=none;horizontalStack=0;resizeParent=1;resizeParentMax=0;resizeLast=0;collapsible=1;marginBottom=0;whiteSpace=wrap;html=1;" parent="1" vertex="1">
          <mxGeometry x="-235" y="291" width="190" height="52" as="geometry" />
        </mxCell>
        <mxCell id="N-MT3SJ8cDDi7K5SvlAo-2" value="+ play(): boolean" style="text;strokeColor=none;fillColor=none;align=left;verticalAlign=top;spacingLeft=4;spacingRight=4;overflow=hidden;rotatable=0;points=[[0,0.5],[1,0.5]];portConstraint=eastwest;whiteSpace=wrap;html=1;" parent="N-MT3SJ8cDDi7K5SvlAo-1" vertex="1">
          <mxGeometry y="26" width="190" height="26" as="geometry" />
        </mxCell>
        <mxCell id="N-MT3SJ8cDDi7K5SvlAo-4" value="" style="endArrow=block;dashed=1;endFill=0;endSize=12;html=1;rounded=0;entryX=1.025;entryY=0.165;entryDx=0;entryDy=0;entryPerimeter=0;exitX=-0.005;exitY=0.525;exitDx=0;exitDy=0;exitPerimeter=0;" parent="1" source="wWvbnRaUt92-p2GNaJ0o-8" target="N-MT3SJ8cDDi7K5SvlAo-1" edge="1">
          <mxGeometry width="160" relative="1" as="geometry">
            <mxPoint x="116" y="290" as="sourcePoint" />
            <mxPoint x="-40" y="271" as="targetPoint" />
          </mxGeometry>
        </mxCell>
      </root>
    </mxGraphModel>
  </diagram>
</mxfile>
